<svg xmlns="http://www.w3.org/2000/svg" width="30" height="30" viewBox="0 0 30 30" fill="none"><path d="M27.4081 6.46845C27.3219 6.12367 26.9771 5.95128 26.6323 5.95128H24.0465V3.36544C24.0465 3.02066 23.8741 2.67588 23.5293 2.58969C23.1846 2.4173 22.8398 2.50349 22.5812 2.76208L19.1334 6.20987C18.961 6.38226 18.8748 6.55465 18.8748 6.81323V9.91625L13.9617 14.8293C13.6169 15.1741 13.6169 15.6913 13.9617 16.0361C14.1341 16.2085 14.3927 16.2947 14.5651 16.2947C14.7375 16.2947 14.996 16.2085 15.1684 16.0361L20.0815 11.123H23.1846C23.4431 11.123 23.6155 11.0368 23.7879 10.8644L27.2357 7.4166C27.4943 7.15801 27.5805 6.81323 27.4081 6.46845Z" fill="white"></path><path d="M16.3776 17.2429C15.9467 17.76 15.2571 18.0186 14.5676 18.0186C13.878 18.0186 13.1884 17.76 12.7575 17.2429C11.7231 16.2085 11.7231 14.5708 12.7575 13.6227L15.1709 11.2092C14.9985 11.123 14.7399 11.123 14.5676 11.123C12.1541 11.123 10.2578 13.0193 10.2578 15.4328C10.2578 17.8462 12.1541 19.7425 14.5676 19.7425C16.981 19.7425 18.8773 17.8462 18.8773 15.4328C18.8773 15.2604 18.8773 15.0018 18.7911 14.8294L16.3776 17.2429Z" fill="white"></path><path d="M24.9968 12.0712C24.5659 12.5883 23.8763 12.8469 23.1868 12.8469H20.7733L20.1699 13.4503C20.4285 14.0536 20.5147 14.7432 20.5147 15.4328C20.5147 18.7943 17.8427 21.4664 14.4811 21.4664C11.1195 21.4664 8.44744 18.7943 8.44744 15.4328C8.44744 12.0712 11.1195 9.39911 14.4811 9.39911C15.1706 9.39911 15.8602 9.5715 16.4636 9.74389L17.1531 9.22673V6.81327C17.1531 6.12371 17.4117 5.43415 17.9289 5.00318L18.7908 4.14123C17.4117 3.62406 16.0326 3.36548 14.5673 3.36548C7.93027 3.36548 2.5 8.79575 2.5 15.4328C2.5 22.0697 7.93027 27.5 14.5673 27.5C21.2043 27.5 26.6345 22.0697 26.6345 15.4328C26.6345 13.9674 26.376 12.5883 25.8588 11.2092L24.9968 12.0712Z" fill="white"></path></svg>