<svg xmlns="http://www.w3.org/2000/svg" width="30" height="30" viewBox="0 0 30 30" fill="none"><g clip-path="url(#clip0_159_870)"><path d="M29.9754 14.7793C29.9518 14.6764 29.9281 14.619 29.9068 14.5656C29.8642 14.466 29.8234 14.3909 29.7756 14.3057C29.5995 13.9993 29.3168 13.5845 28.9293 13.0625C28.3509 12.2848 27.5542 11.2995 26.6517 10.327C25.7484 9.35461 24.7464 8.39707 23.7261 7.67397C22.2833 6.65291 20.8803 5.85897 19.4435 5.31944C18.0076 4.77949 16.5379 4.49912 15 4.5C13.4621 4.49912 11.9924 4.77949 10.5565 5.31949C9.11918 5.85897 7.71668 6.65297 6.27387 7.67356C4.75635 8.75209 3.26209 10.353 2.10797 11.7434C1.53229 12.4387 1.04707 13.0792 0.697148 13.5789C0.521426 13.8292 0.380566 14.0433 0.272109 14.224C0.217441 14.3159 0.171563 14.3978 0.1275 14.4897C0.105234 14.5365 0.0839063 14.5847 0.060293 14.6524C0.0486914 14.6866 0.0361523 14.7265 0.0246094 14.7793C0.0134766 14.8327 0.00046875 14.8985 0 15.0009C0.00046875 15.1029 0.013418 15.1692 0.0246094 15.2224C0.0477539 15.3253 0.0718945 15.3823 0.0931641 15.4361C0.13582 15.5357 0.176602 15.6108 0.224355 15.6956C0.400488 16.002 0.683203 16.4173 1.07068 16.9392C1.64865 17.7169 2.44582 18.7027 3.34828 19.6752C4.25162 20.6476 5.25369 21.6047 6.27387 22.3277C7.71668 23.3488 9.11924 24.1423 10.5565 24.6823C11.9924 25.2218 13.4621 25.5026 15 25.5017C16.5379 25.5026 18.0076 25.2218 19.4435 24.6823C20.8804 24.1423 22.2833 23.3488 23.7262 22.3282C25.2437 21.2496 26.738 19.6488 27.8921 18.2583C28.4677 17.5631 28.953 16.9225 29.3029 16.4228C29.4786 16.1721 29.6194 15.9584 29.7279 15.7772C29.7827 15.6854 29.8286 15.6034 29.8726 15.5121C29.8944 15.4652 29.9162 15.417 29.9398 15.3489C29.9514 15.3146 29.9639 15.2752 29.9754 15.2224C29.9866 15.169 29.9996 15.1028 30.0001 15.0008C29.9995 14.8985 29.9866 14.8327 29.9754 14.7793ZM15 22.1193C11.0682 22.1193 7.88168 18.9322 7.88168 15.0009C7.88168 11.0705 11.0682 7.88262 15 7.88262C18.9318 7.88262 22.1183 11.0705 22.1183 15.0009C22.1183 18.9322 18.9318 22.1193 15 22.1193Z" fill="white"></path><path d="M16.7817 14.672C16.4081 14.7406 16.0257 14.608 15.7759 14.3225C15.5256 14.0361 15.445 13.6402 15.5631 13.2787L16.0267 11.8613C15.7031 11.7556 15.3588 11.6973 14.9995 11.6973C13.1743 11.6973 11.6953 13.1758 11.6953 15.001C11.6953 16.8262 13.1743 18.3057 14.9995 18.3057C16.8248 18.3057 18.3038 16.8262 18.3038 15.001C18.3038 14.7962 18.2824 14.5959 18.2467 14.4013L16.7817 14.672Z" fill="white"></path></g><defs><clipPath id="clip0_159_870"><rect width="30" height="30" fill="white"></rect></clipPath></defs></svg>