<svg xmlns="http://www.w3.org/2000/svg" width="102" height="55" viewBox="0 0 102 55" fill="none"><path d="M16.1198 43.3691C15.9993 43.3691 15.9993 43.1369 16.1198 43.1369H19.2769C19.5092 43.1369 19.621 43.0766 19.621 42.9046V24.5122C19.621 20.4432 16.6961 18.671 14.7519 18.671C13.2742 18.5943 11.8163 19.0376 10.6314 19.924C9.44644 20.8103 8.60939 22.0837 8.26557 23.5229V42.9476C8.26557 43.1196 8.38601 43.1799 8.60967 43.1799H11.7668C11.8787 43.1799 11.8787 43.4121 11.7668 43.4121H0.247938C0.136104 43.4121 0.136104 43.1799 0.247938 43.1799H3.39649C3.62876 43.1799 3.7406 43.1196 3.7406 42.9476V19.3592C3.7406 19.2474 3.62876 19.1872 3.39649 19.1872H0.247938C0.136104 19.1872 0.136104 18.9549 0.247938 18.9549H8.09352C8.11678 18.9521 8.14036 18.9547 8.1625 18.9624C8.18463 18.97 8.20474 18.9826 8.2213 18.9992C8.23787 19.0157 8.25045 19.0358 8.25812 19.058C8.26579 19.0801 8.26834 19.1037 8.26557 19.127V22.9121C8.69905 21.5554 9.56986 20.3805 10.7419 19.5712C11.9139 18.7618 13.321 18.3636 14.7433 18.4387C20.5845 18.4387 24.1374 21.8798 24.1374 28.0135V42.9046C24.1374 43.0766 24.2578 43.1369 24.5417 43.1369H27.6903C27.8107 43.1369 27.8107 43.3691 27.6903 43.3691H16.1198Z" fill="white"></path><path d="M40.524 43.886C33.9344 43.886 28.6094 38.1566 28.6094 31.1627C28.6094 24.1688 33.9 18.4395 40.524 18.4395C47.148 18.4395 52.4988 24.1172 52.4988 31.1627C52.4988 38.2083 47.1738 43.886 40.524 43.886ZM44.9887 19.9879C43.7196 19.0021 42.1249 18.532 40.524 18.6717C38.9391 18.5332 37.3609 19.0038 36.1109 19.9879C34.1667 21.6482 33.186 25.1495 33.186 31.1713C33.186 38.0534 34.1667 40.7374 36.1109 42.3977C37.3713 43.3624 38.9407 43.8335 40.524 43.7225C42.1234 43.8343 43.7092 43.3638 44.9887 42.3977C46.8813 40.7374 47.9136 38.0448 47.9136 31.1713C47.9136 25.1495 46.8813 21.6482 44.9887 19.9879Z" fill="white"></path><path d="M72.9532 43.3693C72.93 43.3721 72.9064 43.3695 72.8842 43.3618C72.8621 43.3542 72.842 43.3416 72.8254 43.325C72.8089 43.3085 72.7963 43.2883 72.7886 43.2662C72.781 43.2441 72.7784 43.2205 72.7812 43.1972V39.4121C71.7489 42.6811 68.9358 43.8854 66.3034 43.8854C60.5138 43.8854 56.9094 40.8487 56.9094 34.7151V19.4196C56.9094 19.2992 56.7889 19.1874 56.5653 19.1874H53.4081C53.2963 19.1874 53.2963 18.9551 53.4081 18.9551H61.2623C61.3066 18.959 61.3482 18.9783 61.3796 19.0098C61.4111 19.0413 61.4305 19.0828 61.4343 19.1271V37.812C61.4343 41.8724 64.3592 43.6532 66.3034 43.6532C67.7775 43.7414 69.2355 43.3066 70.4205 42.4253C71.6055 41.544 72.4415 40.2729 72.7812 38.8357V19.4196C72.7812 19.2992 72.6607 19.1874 72.4371 19.1874H69.2799C69.1681 19.1874 69.1681 18.9551 69.2799 18.9551H77.1943C77.3061 18.9551 77.3062 19.0755 77.3062 19.1271V42.965C77.3062 43.0768 77.418 43.137 77.7019 43.137H80.859C80.9709 43.137 80.9709 43.3693 80.859 43.3693H72.9532Z" fill="white"></path><path d="M83.323 44.6851C83.2627 44.7969 83.0391 44.6851 83.0391 44.5646L101.431 0.0461096C101.483 -0.0657243 101.715 0.0461091 101.655 0.166546L83.323 44.6851Z" fill="white"></path></svg>