<svg xmlns="http://www.w3.org/2000/svg" width="81" height="26" viewBox="0 0 81 26" fill="none"><path d="M16.1198 25.3689C15.9993 25.3689 15.9993 25.1367 16.1198 25.1367H19.2769C19.5092 25.1367 19.621 25.0764 19.621 24.9044V6.51199C19.621 2.44296 16.6961 0.670824 14.7519 0.670824C13.2742 0.594137 11.8163 1.03745 10.6314 1.92378C9.44644 2.81011 8.60939 4.08346 8.26557 5.5227V24.9474C8.26557 25.1194 8.38601 25.1797 8.60967 25.1797H11.7668C11.8787 25.1797 11.8787 25.4119 11.7668 25.4119H0.247938C0.136104 25.4119 0.136104 25.1797 0.247938 25.1797H3.39649C3.62876 25.1797 3.7406 25.1194 3.7406 24.9474V1.35904C3.7406 1.2472 3.62876 1.18699 3.39649 1.18699H0.247938C0.136104 1.18699 0.136104 0.954712 0.247938 0.954712H8.09352C8.11678 0.951945 8.14036 0.954486 8.1625 0.962155C8.18463 0.969823 8.20474 0.982411 8.2213 0.998975C8.23787 1.01554 8.25045 1.03565 8.25812 1.05778C8.26579 1.07992 8.26834 1.1035 8.26557 1.12676V4.9119C8.69905 3.55517 9.56986 2.3803 10.7419 1.57095C11.9139 0.761598 13.321 0.363376 14.7433 0.43855C20.5845 0.43855 24.1374 3.8796 24.1374 10.0133V24.9044C24.1374 25.0764 24.2578 25.1367 24.5417 25.1367H27.6903C27.8107 25.1367 27.8107 25.3689 27.6903 25.3689H16.1198Z" fill="white"></path><path d="M40.524 25.886C33.9344 25.886 28.6094 20.1566 28.6094 13.1627C28.6094 6.1688 33.9 0.439453 40.524 0.439453C47.148 0.439453 52.4988 6.11718 52.4988 13.1627C52.4988 20.2083 47.1738 25.886 40.524 25.886ZM44.9887 1.98793C43.7196 1.00209 42.1249 0.531985 40.524 0.671727C38.9391 0.53317 37.3609 1.00384 36.1109 1.98793C34.1667 3.64823 33.186 7.14949 33.186 13.1713C33.186 20.0534 34.1667 22.7374 36.1109 24.3977C37.3713 25.3624 38.9407 25.8335 40.524 25.7225C42.1234 25.8343 43.7092 25.3638 44.9887 24.3977C46.8813 22.7374 47.9136 20.0448 47.9136 13.1713C47.9136 7.14949 46.8813 3.64823 44.9887 1.98793Z" fill="white"></path><path d="M72.9532 25.3693C72.93 25.3721 72.9064 25.3695 72.8842 25.3618C72.8621 25.3542 72.842 25.3416 72.8254 25.325C72.8089 25.3085 72.7963 25.2883 72.7886 25.2662C72.781 25.2441 72.7784 25.2205 72.7812 25.1972V21.4121C71.7489 24.6811 68.9358 25.8854 66.3034 25.8854C60.5138 25.8854 56.9094 22.8487 56.9094 16.7151V1.41961C56.9094 1.29918 56.7889 1.18735 56.5653 1.18735H53.4081C53.2963 1.18735 53.2963 0.955078 53.4081 0.955078H61.2623C61.3066 0.958954 61.3482 0.978325 61.3796 1.00979C61.4111 1.04125 61.4305 1.0828 61.4343 1.12713V19.812C61.4343 23.8724 64.3592 25.6532 66.3034 25.6532C67.7775 25.7414 69.2355 25.3066 70.4205 24.4253C71.6055 23.544 72.4415 22.2729 72.7812 20.8357V1.41961C72.7812 1.29918 72.6607 1.18735 72.4371 1.18735H69.2799C69.1681 1.18735 69.1681 0.955078 69.2799 0.955078H77.1943C77.3061 0.955078 77.3062 1.07551 77.3062 1.12713V24.965C77.3062 25.0768 77.418 25.137 77.7019 25.137H80.859C80.9709 25.137 80.9709 25.3693 80.859 25.3693H72.9532Z" fill="white"></path></svg>