<svg xmlns="http://www.w3.org/2000/svg" width="102" height="55" viewBox="0 0 102 55" fill="none"><path d="M3.78885 54.4917C3.62647 54.4989 3.46761 54.4428 3.34568 54.3354C3.22375 54.2279 3.14825 54.0773 3.13505 53.9153C3.03873 54.1099 2.8844 54.2699 2.69334 54.3731C2.50229 54.4763 2.28392 54.5178 2.06833 54.4917C1.47475 54.4917 0.881168 54.268 0.881168 53.554C0.871071 53.3955 0.894862 53.2366 0.950952 53.088C1.00704 52.9394 1.09414 52.8044 1.20646 52.6921C1.31878 52.5798 1.45374 52.4927 1.60235 52.4366C1.75096 52.3805 1.90981 52.3567 2.06833 52.3668C2.56728 52.3238 3.13505 52.2894 3.13505 52.1001V51.4119C3.13505 50.6979 2.75654 50.5 2.42964 50.5C2.37584 50.4941 2.32141 50.5007 2.27055 50.5192C2.21969 50.5377 2.17378 50.5676 2.13635 50.6067C2.09892 50.6458 2.07099 50.693 2.05472 50.7446C2.03845 50.7962 2.03428 50.8509 2.04252 50.9044C2.04252 51.042 2.10274 51.0936 2.10274 51.2227C2.10274 51.3517 1.99951 51.5324 1.72422 51.5324C1.67518 51.5327 1.62662 51.5226 1.58179 51.5027C1.53697 51.4828 1.49692 51.4535 1.46434 51.4169C1.43175 51.3802 1.40738 51.337 1.39285 51.2902C1.37833 51.2433 1.37399 51.1939 1.38012 51.1452C1.38012 50.8442 1.72422 50.457 2.42964 50.457C3.35012 50.457 3.84047 50.9646 3.84047 52.0915V54.0271C3.84047 54.2336 3.9437 54.3196 4.08134 54.3196C4.14941 54.3137 4.21472 54.2899 4.27062 54.2507C4.32653 54.2114 4.37104 54.158 4.39964 54.0959C4.35749 54.2212 4.27418 54.3285 4.16327 54.4003C4.05236 54.4722 3.92039 54.5044 3.78885 54.4917ZM3.09204 52.2636C2.81567 52.3642 2.5256 52.4223 2.23178 52.4356C1.93929 52.5045 1.61239 52.7281 1.61239 53.554C1.61239 54.3798 1.9909 54.4142 2.26619 54.4142C2.71352 54.4142 3.12645 54.1131 3.12645 53.7776L3.09204 52.2636Z" fill="white"></path><path d="M7.92273 51.3689C7.68186 51.3689 7.55282 51.2398 7.55282 51.0936C7.55282 50.9473 7.64745 50.9043 7.64745 50.7667C7.64745 50.629 7.56142 50.5774 7.42378 50.5774C7.28614 50.5774 7.03666 50.629 6.8388 51.257V54.311C6.8388 54.311 6.8388 54.311 6.89902 54.311H7.39797V54.354H5.57422V54.311H6.07317H6.12479V50.6118C6.12479 50.6118 6.12479 50.6118 6.07317 50.6118H5.57422H6.8216V51.2054C6.99365 50.6893 7.26893 50.5 7.68186 50.5C8.09478 50.5 8.30985 50.6893 8.30985 51.0334C8.29911 51.1276 8.25336 51.2144 8.18167 51.2766C8.10998 51.3387 8.01756 51.3716 7.92273 51.3689Z" fill="white"></path><path d="M11.5333 54.4924C11.0255 54.4591 10.5494 54.2339 10.2016 53.8624C9.85371 53.491 9.66016 53.0012 9.66016 52.4923C9.66016 51.9834 9.85371 51.4936 10.2016 51.1221C10.5494 50.7507 11.0255 50.5255 11.5333 50.4922C12.3936 50.4922 12.7033 50.9051 12.7033 51.3524C12.7114 51.4017 12.7081 51.4522 12.6936 51.5001C12.6792 51.5479 12.6539 51.5918 12.6199 51.6283C12.5858 51.6649 12.5438 51.6931 12.4971 51.7109C12.4505 51.7287 12.4003 51.7356 12.3506 51.731C12.306 51.7358 12.2609 51.7312 12.2182 51.7174C12.1755 51.7036 12.1362 51.6809 12.1029 51.6508C12.0696 51.6208 12.043 51.584 12.0249 51.543C12.0068 51.5019 11.9976 51.4575 11.9979 51.4127C11.9979 51.2062 12.0925 51.232 12.0925 50.9825C12.0925 50.7331 11.9807 50.5696 11.5333 50.5696C11.2866 50.5538 11.0424 50.6271 10.8451 50.7761C10.5354 51.0341 10.3806 51.4471 10.3806 52.4966C10.3806 53.5461 10.5354 54.002 10.8451 54.2601C11.0444 54.4052 11.2871 54.478 11.5333 54.4666C11.8292 54.4603 12.1184 54.3779 12.3731 54.2272C12.6278 54.0765 12.8393 53.8626 12.9872 53.6063C12.8425 53.8675 12.6324 54.0864 12.3775 54.2418C12.1226 54.3971 11.8317 54.4835 11.5333 54.4924Z" fill="white"></path><path d="M16.6924 54.3794V54.3364H17.1913H17.243V51.4459C17.2576 51.2245 17.1861 51.006 17.0434 50.8361C16.9007 50.6662 16.6979 50.558 16.4773 50.534C16.2463 50.5216 16.0182 50.5906 15.8328 50.7289C15.6473 50.8672 15.5162 51.0661 15.4622 51.2911V54.3364C15.4622 54.3364 15.4622 54.3364 15.5138 54.3364H16.0128V54.3794H14.2148V54.3364H14.7138H14.7654V47.8672C14.7654 47.8672 14.7654 47.8672 14.7138 47.8672H14.2148V47.8242H15.4536V51.205C15.5203 50.9913 15.6563 50.8059 15.8401 50.6781C16.024 50.5504 16.2452 50.4876 16.4687 50.4996C16.6697 50.482 16.8721 50.5091 17.0614 50.5789C17.2506 50.6487 17.4221 50.7596 17.5636 50.9034C17.705 51.0473 17.8128 51.2207 17.8793 51.4112C17.9459 51.6016 17.9694 51.8044 17.9484 52.0051V54.345C17.9484 54.345 17.9484 54.345 18.0086 54.345H18.5075V54.388L16.6924 54.3794Z" fill="white"></path><path d="M19.7773 54.3807V54.3377H20.2763H20.3279V50.6471C20.3279 50.6471 20.3279 50.6471 20.2763 50.6471H19.7773H20.9989V54.3807C20.9989 54.3807 20.9989 54.3807 21.0591 54.3807H21.5581V54.4237L19.7773 54.3807ZM20.6376 48.6943C20.5136 48.6921 20.3955 48.6412 20.3086 48.5527C20.2217 48.4643 20.173 48.3452 20.1731 48.2212C20.1719 48.1595 20.1831 48.0981 20.2059 48.0408C20.2288 47.9834 20.2628 47.9312 20.306 47.8871C20.3493 47.8431 20.4009 47.8081 20.4578 47.7842C20.5148 47.7603 20.5759 47.748 20.6376 47.748C20.7639 47.748 20.8851 47.7976 20.9752 47.8861C21.0653 47.9746 21.1171 48.0949 21.1193 48.2212C21.1177 48.3404 21.0719 48.4547 20.9909 48.5421C20.9099 48.6294 20.7993 48.6837 20.6806 48.6943H20.6376Z" fill="white"></path><path d="M24.1999 54.4918C23.7182 54.4918 23.4687 54.1993 23.4687 53.6315V50.6636C23.4687 50.6636 23.4687 50.6636 23.4085 50.6636H23.4687V49.6141C23.8214 49.5625 24.0623 49.4506 24.1397 49.2012V50.6636C24.1397 50.6636 24.1397 50.6636 24.2085 50.6636C24.1569 50.6636 24.1397 50.6636 24.1397 50.6636V54.1047C24.1369 54.14 24.142 54.1755 24.1546 54.2086C24.1671 54.2418 24.1868 54.2718 24.2123 54.2964C24.2378 54.3211 24.2684 54.3398 24.3019 54.3513C24.3355 54.3627 24.3711 54.3666 24.4064 54.3627C24.6472 54.3627 24.8881 54.1305 24.9999 53.6917C24.9483 54.1219 24.6988 54.4918 24.1999 54.4918Z" fill="white"></path><path d="M29.837 52.246H27.2562C27.2516 52.3205 27.2516 52.3952 27.2562 52.4697C27.2562 53.545 27.3595 53.9666 27.652 54.1902C27.845 54.3347 28.0821 54.4077 28.323 54.3967C28.6174 54.389 28.9048 54.3058 29.1579 54.1552C29.4109 54.0046 29.6211 53.7915 29.7682 53.5364C29.6188 53.7952 29.4046 54.0106 29.1467 54.1615C28.8887 54.3123 28.596 54.3934 28.2972 54.3967C27.8059 54.3408 27.3523 54.106 27.023 53.7371C26.6937 53.3683 26.5117 52.8911 26.5117 52.3966C26.5117 51.9021 26.6937 51.4249 27.023 51.056C27.3523 50.6872 27.8059 50.4524 28.2972 50.3965C28.7352 50.4337 29.1424 50.6371 29.4351 50.9651C29.7279 51.293 29.884 51.7206 29.8714 52.16L29.837 52.246ZM28.8219 50.7062C28.7537 50.6346 28.6705 50.579 28.5783 50.5433C28.4861 50.5076 28.3872 50.4927 28.2886 50.4997C28.0472 50.4842 27.8085 50.5576 27.6176 50.7062C27.3509 50.9384 27.2476 51.4202 27.2304 52.203H29.1402C29.123 51.4202 29.0542 50.9384 28.8219 50.7062Z" fill="white"></path><path d="M33.3068 54.4924C32.799 54.4591 32.3229 54.2339 31.975 53.8624C31.6271 53.491 31.4336 53.0012 31.4336 52.4923C31.4336 51.9834 31.6271 51.4936 31.975 51.1221C32.3229 50.7507 32.799 50.5255 33.3068 50.4922C34.167 50.4922 34.4767 50.9051 34.4767 51.3524C34.4833 51.4022 34.4787 51.4529 34.4631 51.5006C34.4476 51.5484 34.4215 51.592 34.3868 51.6283C34.3522 51.6647 34.3098 51.6928 34.2628 51.7105C34.2158 51.7283 34.1654 51.7353 34.1154 51.731C34.0711 51.7345 34.0265 51.7289 33.9844 51.7146C33.9423 51.7003 33.9035 51.6776 33.8705 51.6478C33.8375 51.618 33.8109 51.5818 33.7924 51.5413C33.7738 51.5009 33.7637 51.4571 33.7627 51.4127C33.7627 51.2062 33.8659 51.232 33.8659 50.9825C33.8659 50.7331 33.7455 50.5696 33.3068 50.5696C33.0574 50.554 32.8106 50.6271 32.6099 50.7761C32.3089 51.0341 32.154 51.4471 32.154 52.4966C32.154 53.5461 32.3089 54.002 32.6099 54.2601C32.8125 54.4052 33.0579 54.4779 33.3068 54.4666C33.6001 54.463 33.8877 54.3844 34.1422 54.2384C34.3966 54.0923 34.6095 53.8836 34.7606 53.6321C34.6127 53.8884 34.4012 54.1023 34.1465 54.253C33.8919 54.4037 33.6026 54.4861 33.3068 54.4924Z" fill="white"></path><path d="M37.3913 54.4918C36.9096 54.4918 36.6515 54.1993 36.6515 53.6315V50.6636C36.6515 50.6636 36.6515 50.6636 36.5999 50.6636H36.6515V49.6141C37.0128 49.5625 37.2451 49.4506 37.3311 49.2012V50.6636C37.3311 50.6636 37.3311 50.6636 37.3913 50.6636H38.1999H37.4257H37.3655V54.1047C37.3613 54.1395 37.3652 54.1749 37.3767 54.2081C37.3882 54.2413 37.4071 54.2715 37.4319 54.2963C37.4567 54.3212 37.4869 54.3401 37.5201 54.3516C37.5533 54.3631 37.5887 54.3669 37.6236 54.3627C37.8644 54.3627 38.1139 54.1305 38.2171 53.6917C38.1397 54.1219 37.8902 54.4918 37.3913 54.4918Z" fill="white"></path><path d="M42.4508 54.3793V53.7771C42.3842 53.9908 42.2482 54.1762 42.0643 54.304C41.8805 54.4317 41.6593 54.4946 41.4357 54.4825C41.2341 54.5148 41.0277 54.4997 40.8329 54.4384C40.6381 54.3771 40.4602 54.2714 40.3133 54.1295C40.1665 53.9876 40.0546 53.8136 39.9866 53.621C39.9187 53.4284 39.8964 53.2227 39.9217 53.02V50.6113C39.9217 50.6113 39.9217 50.6113 39.87 50.6113H39.3711H40.6099V53.5448C40.5929 53.7676 40.6634 53.9883 40.8063 54.1601C40.9492 54.3319 41.1533 54.4414 41.3755 54.4653C41.6069 54.4794 41.8358 54.4112 42.0216 54.2726C42.2074 54.134 42.3382 53.9341 42.3906 53.7083V50.6543C42.3906 50.6543 42.3906 50.6543 42.339 50.6543H41.84H43.0874V54.3965C43.0874 54.3965 43.0874 54.3965 43.1476 54.3965H43.6466V54.4395L42.4508 54.3793Z" fill="white"></path><path d="M47.1876 51.3689C46.9553 51.3689 46.8176 51.2398 46.8176 51.0936C46.8176 50.9473 46.9209 50.9043 46.9209 50.7667C46.9209 50.629 46.8263 50.5774 46.6886 50.5774C46.551 50.5774 46.3015 50.629 46.1036 51.257V54.311C46.1036 54.311 46.1036 54.311 46.1725 54.311H46.6628V54.354H44.8477V54.311H45.338H45.3982V50.6118C45.3982 50.6118 45.3982 50.6118 45.338 50.6118H44.8477H46.0864V51.2054C46.2585 50.6893 46.5424 50.5 46.9467 50.5C47.351 50.5 47.5661 50.6893 47.5661 51.0334C47.5555 51.1261 47.511 51.2117 47.4411 51.2736C47.3712 51.3355 47.2809 51.3695 47.1876 51.3689Z" fill="white"></path><path d="M52.2675 52.246H49.6867C49.6821 52.3205 49.6821 52.3952 49.6867 52.4697C49.6867 53.545 49.7814 53.9666 50.0824 54.1902C50.2728 54.3334 50.5068 54.4064 50.7449 54.3967C51.0407 54.3904 51.3299 54.308 51.5846 54.1573C51.8393 54.0066 52.0508 53.7927 52.1987 53.5364C52.0486 53.7965 51.833 54.0127 51.5734 54.1636C51.3138 54.3145 51.0193 54.3949 50.719 54.3967C50.2277 54.3408 49.7742 54.106 49.4449 53.7371C49.1156 53.3683 48.9336 52.8911 48.9336 52.3966C48.9336 51.9021 49.1156 51.4249 49.4449 51.056C49.7742 50.6872 50.2277 50.4524 50.719 50.3965C51.1586 50.4316 51.5679 50.6341 51.8625 50.9623C52.157 51.2905 52.3143 51.7192 52.3019 52.16C52.3019 52.16 52.2933 52.246 52.2675 52.246ZM51.261 50.7062C51.1908 50.6349 51.1061 50.5795 51.0125 50.5439C50.919 50.5083 50.8189 50.4932 50.719 50.4997C50.4805 50.4855 50.2449 50.5589 50.0566 50.7062C49.7814 50.9384 49.6867 51.4202 49.6695 52.203H51.5793C51.64 51.6827 51.5282 51.1568 51.261 50.7062Z" fill="white"></path><path d="M57.753 54.4924C57.254 54.4924 57.0562 54.2515 56.7207 54.2515C56.657 54.2488 56.5938 54.2633 56.5378 54.2936C56.4817 54.3239 56.4349 54.3688 56.4024 54.4235V53.159C56.4012 53.3306 56.4343 53.5007 56.4997 53.6594C56.5651 53.8181 56.6615 53.9622 56.7833 54.0831C56.9051 54.2041 57.0498 54.2996 57.2089 54.3639C57.368 54.4283 57.5383 54.4603 57.71 54.458C57.8206 54.4734 57.9334 54.4641 58.04 54.4308C58.1467 54.3975 58.2447 54.3409 58.3269 54.2653C58.4091 54.1896 58.4736 54.0967 58.5157 53.9932C58.5577 53.8896 58.5764 53.7781 58.5702 53.6665C58.5702 53.159 58.1745 52.9353 57.5465 52.7202C56.9185 52.5052 56.5056 52.2385 56.5056 51.6449C56.4951 51.5002 56.514 51.3548 56.5611 51.2176C56.6083 51.0803 56.6827 50.954 56.78 50.8463C56.8773 50.7386 56.9953 50.6517 57.127 50.5909C57.2588 50.53 57.4015 50.4964 57.5465 50.4922C57.8476 50.4922 57.8992 50.5868 58.2863 50.5868C58.4154 50.5868 58.4756 50.5868 58.4756 50.4577V51.4729C58.4791 51.3495 58.4576 51.2267 58.4122 51.1119C58.3669 50.9971 58.2987 50.8927 58.2119 50.8051C58.125 50.7174 58.0212 50.6483 57.9069 50.6019C57.7925 50.5555 57.6699 50.5328 57.5465 50.5352C57.1078 50.5352 56.8325 50.7502 56.8325 51.1546C56.8325 51.5589 57.1852 51.8686 57.8476 52.075C58.51 52.2815 58.9832 52.66 58.9832 53.2364C58.9971 53.4026 58.975 53.5699 58.9185 53.7269C58.8619 53.8838 58.7723 54.0268 58.6555 54.1459C58.5388 54.2651 58.3978 54.3578 58.242 54.4175C58.0863 54.4773 57.9195 54.5028 57.753 54.4924Z" fill="white"></path><path d="M61.7624 54.4918C61.272 54.4918 61.0226 54.1993 61.0226 53.6315V50.6636C61.0226 50.6636 61.0226 50.6636 60.971 50.6636H61.0226V49.6141C61.3839 49.5625 61.6161 49.4506 61.6936 49.2012V50.6636C61.6936 50.6636 61.6936 50.6636 61.7538 50.6636C61.7108 50.6636 61.6936 50.6636 61.6936 50.6636V54.1047C61.6894 54.1395 61.6932 54.1749 61.7047 54.2081C61.7162 54.2413 61.7351 54.2715 61.76 54.2963C61.7848 54.3212 61.815 54.3401 61.8482 54.3516C61.8814 54.3631 61.9168 54.3669 61.9516 54.3627C62.1925 54.3627 62.442 54.1305 62.5452 53.6917C62.5108 54.1219 62.2871 54.4918 61.7624 54.4918Z" fill="white"></path><path d="M66.8227 54.3808V53.7786C66.756 53.9924 66.62 54.1778 66.4362 54.3055C66.2523 54.4333 66.0311 54.4961 65.8076 54.484C65.6109 54.5097 65.411 54.4905 65.2228 54.428C65.0346 54.3655 64.8629 54.2613 64.7207 54.1232C64.5784 53.985 64.4692 53.8165 64.4011 53.6303C64.3331 53.444 64.3081 53.2447 64.3279 53.0474V50.6387C64.3279 50.6387 64.3279 50.6387 64.2763 50.6387H63.7773H65.0161V53.5722C64.9992 53.795 65.0696 54.0156 65.2125 54.1874C65.3554 54.3592 65.5596 54.4687 65.7817 54.4926C66.0128 54.5051 66.2408 54.4361 66.4263 54.2978C66.6118 54.1595 66.7429 53.9606 66.7969 53.7356V50.6817C66.7969 50.6817 66.7969 50.6817 66.7452 50.6817H66.2463H67.4937V54.4238C67.4937 54.4238 67.4937 54.4238 67.5539 54.4238H68.0528V54.4668L66.8227 54.3808Z" fill="white"></path><path d="M72.1575 54.3802V53.9759C72.0917 54.1446 71.9711 54.2863 71.8151 54.3783C71.6591 54.4704 71.4768 54.5074 71.2972 54.4834C70.7913 54.4549 70.3154 54.2342 69.9668 53.8664C69.6182 53.4986 69.4233 53.0116 69.4219 52.5048C69.4226 51.9936 69.616 51.5015 69.9637 51.1268C70.3113 50.752 70.7876 50.5222 71.2972 50.4832C71.4584 50.4762 71.6191 50.5049 71.7679 50.5674C71.9166 50.6299 72.0497 50.7245 72.1575 50.8445V47.8594C72.1575 47.8594 72.1575 47.8594 72.1059 47.8594H71.6069V47.8164H72.8371V54.3372C72.8371 54.3372 72.8371 54.3372 72.8973 54.3372H73.3877V54.3802H72.1575ZM72.1575 50.8875C72.0547 50.7598 71.9232 50.6582 71.7737 50.5909C71.6243 50.5237 71.461 50.4926 71.2972 50.5004C71.0481 50.4863 70.8017 50.5593 70.6004 50.7069C70.4103 50.9572 70.2715 51.2426 70.1917 51.5467C70.112 51.8508 70.0931 52.1676 70.1359 52.479C70.1359 53.4081 70.2993 53.9759 70.6004 54.1995C70.8035 54.3434 71.0485 54.416 71.2972 54.406C71.4005 54.4231 71.5061 54.4182 71.6073 54.3915C71.7084 54.3648 71.8028 54.3169 71.8841 54.2511C71.9654 54.1852 72.0318 54.1029 72.0789 54.0095C72.126 53.9161 72.1528 53.8137 72.1575 53.7092V50.8875Z" fill="white"></path><path d="M74.625 54.3807V54.3377H75.1154C75.1584 54.3377 75.1756 54.3377 75.1756 54.3377V50.6472C75.1756 50.6472 75.1756 50.6472 75.1154 50.6472H74.625H75.8638V54.3807C75.8638 54.3807 75.8638 54.3807 75.9326 54.3807H76.4229V54.4237L74.625 54.3807ZM75.4853 48.6944C75.3613 48.6921 75.2431 48.6413 75.1562 48.5528C75.0694 48.4643 75.0207 48.3453 75.0207 48.2213C75.0196 48.1595 75.0307 48.0982 75.0536 48.0408C75.0764 47.9835 75.1105 47.9313 75.1537 47.8872C75.197 47.8432 75.2486 47.8082 75.3055 47.7843C75.3624 47.7604 75.4235 47.7481 75.4853 47.7481C75.5481 47.747 75.6106 47.7584 75.669 47.7816C75.7274 47.8049 75.7805 47.8396 75.8254 47.8836C75.8702 47.9277 75.9059 47.9802 75.9302 48.0382C75.9545 48.0962 75.967 48.1584 75.967 48.2213C75.9652 48.3418 75.9182 48.4573 75.8354 48.5449C75.7526 48.6324 75.6399 48.6858 75.5197 48.6944H75.4853Z" fill="white"></path><path d="M79.7342 54.4915C79.3332 54.5157 78.9341 54.4187 78.5888 54.2133C78.2436 54.0078 77.968 53.7034 77.7979 53.3394C77.6278 52.9754 77.571 52.5686 77.6349 52.172C77.6988 51.7753 77.8804 51.407 78.1562 51.1148C78.432 50.8227 78.7892 50.6201 79.1816 50.5335C79.5739 50.4468 79.9832 50.4801 80.3564 50.629C80.7296 50.7778 81.0494 51.0354 81.2744 51.3683C81.4994 51.7011 81.6192 52.0939 81.6182 52.4957C81.6262 52.7506 81.5838 53.0046 81.4933 53.2431C81.4029 53.4816 81.2662 53.6998 81.0911 53.8853C80.916 54.0707 80.706 54.2198 80.4732 54.3238C80.2403 54.4279 79.9892 54.4849 79.7342 54.4915ZM80.4396 50.7408C80.2393 50.5847 79.9871 50.5109 79.7342 50.5343C79.4869 50.5127 79.2406 50.5866 79.046 50.7408C78.7363 50.9989 78.5815 51.5494 78.5815 52.4613C78.5815 53.5366 78.7363 53.9668 79.046 54.2248C79.2426 54.3753 79.4873 54.4487 79.7342 54.4313C79.9866 54.4506 80.2374 54.3772 80.4396 54.2248C80.7407 53.9668 80.8956 53.5366 80.8956 52.4613C80.8956 51.515 80.7407 50.9645 80.4396 50.7064V50.7408Z" fill="white"></path><path d="M16.1198 43.3689C15.9993 43.3689 15.9993 43.1367 16.1198 43.1367H19.2769C19.5092 43.1367 19.621 43.0764 19.621 42.9044V24.512C19.621 20.443 16.6961 18.6708 14.7519 18.6708C13.2742 18.5941 11.8163 19.0374 10.6314 19.9238C9.44644 20.8101 8.60939 22.0835 8.26557 23.5227V42.9474C8.26557 43.1194 8.38601 43.1797 8.60967 43.1797H11.7668C11.8787 43.1797 11.8787 43.4119 11.7668 43.4119H0.247938C0.136104 43.4119 0.136104 43.1797 0.247938 43.1797H3.39649C3.62876 43.1797 3.7406 43.1194 3.7406 42.9474V19.359C3.7406 19.2472 3.62876 19.187 3.39649 19.187H0.247938C0.136104 19.187 0.136104 18.9547 0.247938 18.9547H8.09352C8.11678 18.9519 8.14036 18.9545 8.1625 18.9622C8.18463 18.9698 8.20474 18.9824 8.2213 18.999C8.23787 19.0155 8.25045 19.0356 8.25812 19.0578C8.26579 19.0799 8.26834 19.1035 8.26557 19.1268V22.9119C8.69905 21.5552 9.56986 20.3803 10.7419 19.571C11.9139 18.7616 13.321 18.3634 14.7433 18.4385C20.5845 18.4385 24.1374 21.8796 24.1374 28.0133V42.9044C24.1374 43.0764 24.2578 43.1367 24.5417 43.1367H27.6903C27.8107 43.1367 27.8107 43.3689 27.6903 43.3689H16.1198Z" fill="white"></path><path d="M40.524 43.886C33.9344 43.886 28.6094 38.1566 28.6094 31.1627C28.6094 24.1688 33.9 18.4395 40.524 18.4395C47.148 18.4395 52.4988 24.1172 52.4988 31.1627C52.4988 38.2083 47.1738 43.886 40.524 43.886ZM44.9887 19.9879C43.7196 19.0021 42.1249 18.532 40.524 18.6717C38.9391 18.5332 37.3609 19.0038 36.1109 19.9879C34.1667 21.6482 33.186 25.1495 33.186 31.1713C33.186 38.0534 34.1667 40.7374 36.1109 42.3977C37.3713 43.3624 38.9407 43.8335 40.524 43.7225C42.1234 43.8343 43.7092 43.3638 44.9887 42.3977C46.8813 40.7374 47.9136 38.0448 47.9136 31.1713C47.9136 25.1495 46.8813 21.6482 44.9887 19.9879Z" fill="white"></path><path d="M72.9532 43.3693C72.93 43.3721 72.9064 43.3695 72.8842 43.3618C72.8621 43.3542 72.842 43.3416 72.8254 43.325C72.8089 43.3085 72.7963 43.2883 72.7886 43.2662C72.781 43.2441 72.7784 43.2205 72.7812 43.1972V39.4121C71.7489 42.6811 68.9358 43.8854 66.3034 43.8854C60.5138 43.8854 56.9094 40.8487 56.9094 34.7151V19.4196C56.9094 19.2992 56.7889 19.1874 56.5653 19.1874H53.4081C53.2963 19.1874 53.2963 18.9551 53.4081 18.9551H61.2623C61.3066 18.959 61.3482 18.9783 61.3796 19.0098C61.4111 19.0413 61.4305 19.0828 61.4343 19.1271V37.812C61.4343 41.8724 64.3592 43.6532 66.3034 43.6532C67.7775 43.7414 69.2355 43.3066 70.4205 42.4253C71.6055 41.544 72.4415 40.2729 72.7812 38.8357V19.4196C72.7812 19.2992 72.6607 19.1874 72.4371 19.1874H69.2799C69.1681 19.1874 69.1681 18.9551 69.2799 18.9551H77.1943C77.3061 18.9551 77.3062 19.0755 77.3062 19.1271V42.965C77.3062 43.0768 77.418 43.137 77.7019 43.137H80.859C80.9709 43.137 80.9709 43.3693 80.859 43.3693H72.9532Z" fill="white"></path><path d="M83.323 44.6851C83.2627 44.7969 83.0391 44.6851 83.0391 44.5646L101.431 0.0461096C101.483 -0.0657243 101.715 0.0461091 101.655 0.166546L83.323 44.6851Z" fill="white"></path></svg>